<mxfile host="app.diagrams.net" agent="Mozilla/5.0 (Windows NT 10.0; Win64; x64) AppleWebKit/537.36 (KHTML, like Gecko) Chrome/127.0.0.0 Safari/537.36" version="24.7.6">
  <diagram name="Page-1" id="xuUE_tsjIEtxWmii8v3N">
    <mxGraphModel dx="945" dy="615" grid="1" gridSize="10" guides="1" tooltips="1" connect="1" arrows="1" fold="1" page="1" pageScale="1" pageWidth="850" pageHeight="1100" math="0" shadow="0">
      <root>
        <mxCell id="0" />
        <mxCell id="1" parent="0" />
        <mxCell id="ymc9ERC4LqefFPvdhk1X-12" style="edgeStyle=orthogonalEdgeStyle;rounded=0;orthogonalLoop=1;jettySize=auto;html=1;exitX=0.5;exitY=1;exitDx=0;exitDy=0;" edge="1" parent="1">
          <mxGeometry relative="1" as="geometry">
            <mxPoint x="430" y="560" as="sourcePoint" />
            <mxPoint x="430" y="560" as="targetPoint" />
          </mxGeometry>
        </mxCell>
        <mxCell id="ymc9ERC4LqefFPvdhk1X-14" value="Mahasiswa" style="whiteSpace=wrap;html=1;align=center;" vertex="1" parent="1">
          <mxGeometry x="140" y="160" width="100" height="40" as="geometry" />
        </mxCell>
        <mxCell id="ymc9ERC4LqefFPvdhk1X-15" value="jurusan" style="ellipse;whiteSpace=wrap;html=1;align=center;" vertex="1" parent="1">
          <mxGeometry x="20" y="160" width="70" height="40" as="geometry" />
        </mxCell>
        <mxCell id="ymc9ERC4LqefFPvdhk1X-16" value="nim" style="ellipse;whiteSpace=wrap;html=1;align=center;fontStyle=4;" vertex="1" parent="1">
          <mxGeometry x="20" y="100" width="70" height="40" as="geometry" />
        </mxCell>
        <mxCell id="ymc9ERC4LqefFPvdhk1X-17" value="" style="endArrow=none;html=1;rounded=0;exitX=1;exitY=0.5;exitDx=0;exitDy=0;entryX=0;entryY=0.5;entryDx=0;entryDy=0;" edge="1" parent="1" source="ymc9ERC4LqefFPvdhk1X-15" target="ymc9ERC4LqefFPvdhk1X-14">
          <mxGeometry relative="1" as="geometry">
            <mxPoint x="50" y="250" as="sourcePoint" />
            <mxPoint x="210" y="250" as="targetPoint" />
          </mxGeometry>
        </mxCell>
        <mxCell id="ymc9ERC4LqefFPvdhk1X-18" value="" style="endArrow=none;html=1;rounded=0;exitX=1;exitY=0.5;exitDx=0;exitDy=0;entryX=0;entryY=0.5;entryDx=0;entryDy=0;" edge="1" parent="1" source="ymc9ERC4LqefFPvdhk1X-16" target="ymc9ERC4LqefFPvdhk1X-14">
          <mxGeometry relative="1" as="geometry">
            <mxPoint x="90" y="130" as="sourcePoint" />
            <mxPoint x="140" y="130" as="targetPoint" />
            <Array as="points" />
          </mxGeometry>
        </mxCell>
        <mxCell id="ymc9ERC4LqefFPvdhk1X-19" value="alamat" style="ellipse;whiteSpace=wrap;html=1;align=center;" vertex="1" parent="1">
          <mxGeometry x="20" y="220" width="70" height="40" as="geometry" />
        </mxCell>
        <mxCell id="ymc9ERC4LqefFPvdhk1X-20" value="" style="endArrow=none;html=1;rounded=0;entryX=0;entryY=0.5;entryDx=0;entryDy=0;exitX=1;exitY=0.5;exitDx=0;exitDy=0;" edge="1" parent="1" source="ymc9ERC4LqefFPvdhk1X-19" target="ymc9ERC4LqefFPvdhk1X-14">
          <mxGeometry relative="1" as="geometry">
            <mxPoint x="90" y="240" as="sourcePoint" />
            <mxPoint x="140" y="239.55" as="targetPoint" />
          </mxGeometry>
        </mxCell>
        <mxCell id="ymc9ERC4LqefFPvdhk1X-21" value="nama" style="ellipse;whiteSpace=wrap;html=1;align=center;" vertex="1" parent="1">
          <mxGeometry x="155" y="90" width="70" height="40" as="geometry" />
        </mxCell>
        <mxCell id="ymc9ERC4LqefFPvdhk1X-22" value="nama tengah" style="ellipse;whiteSpace=wrap;html=1;align=center;" vertex="1" parent="1">
          <mxGeometry x="157.5" y="10" width="65" height="40" as="geometry" />
        </mxCell>
        <mxCell id="ymc9ERC4LqefFPvdhk1X-23" value="nama belakang" style="ellipse;whiteSpace=wrap;html=1;align=center;" vertex="1" parent="1">
          <mxGeometry x="250" y="20" width="70" height="40" as="geometry" />
        </mxCell>
        <mxCell id="ymc9ERC4LqefFPvdhk1X-24" value="nama depan" style="ellipse;whiteSpace=wrap;html=1;align=center;" vertex="1" parent="1">
          <mxGeometry x="70" y="20" width="60" height="40" as="geometry" />
        </mxCell>
        <mxCell id="ymc9ERC4LqefFPvdhk1X-25" value="" style="endArrow=none;html=1;rounded=0;exitX=0.5;exitY=1;exitDx=0;exitDy=0;entryX=0.5;entryY=0;entryDx=0;entryDy=0;" edge="1" parent="1" source="ymc9ERC4LqefFPvdhk1X-24" target="ymc9ERC4LqefFPvdhk1X-21">
          <mxGeometry relative="1" as="geometry">
            <mxPoint x="80" y="90" as="sourcePoint" />
            <mxPoint x="240" y="90" as="targetPoint" />
          </mxGeometry>
        </mxCell>
        <mxCell id="ymc9ERC4LqefFPvdhk1X-26" value="" style="endArrow=none;html=1;rounded=0;exitX=0.5;exitY=0;exitDx=0;exitDy=0;entryX=0.5;entryY=1;entryDx=0;entryDy=0;" edge="1" parent="1" source="ymc9ERC4LqefFPvdhk1X-21" target="ymc9ERC4LqefFPvdhk1X-22">
          <mxGeometry relative="1" as="geometry">
            <mxPoint x="180" y="80" as="sourcePoint" />
            <mxPoint x="340" y="80" as="targetPoint" />
          </mxGeometry>
        </mxCell>
        <mxCell id="ymc9ERC4LqefFPvdhk1X-27" value="" style="endArrow=none;html=1;rounded=0;exitX=0.5;exitY=0;exitDx=0;exitDy=0;entryX=0.5;entryY=1;entryDx=0;entryDy=0;" edge="1" parent="1" source="ymc9ERC4LqefFPvdhk1X-21" target="ymc9ERC4LqefFPvdhk1X-23">
          <mxGeometry relative="1" as="geometry">
            <mxPoint x="230" y="100" as="sourcePoint" />
            <mxPoint x="390" y="100" as="targetPoint" />
          </mxGeometry>
        </mxCell>
        <mxCell id="ymc9ERC4LqefFPvdhk1X-28" value="" style="endArrow=none;html=1;rounded=0;entryX=0.5;entryY=1;entryDx=0;entryDy=0;exitX=0.5;exitY=0;exitDx=0;exitDy=0;" edge="1" parent="1" source="ymc9ERC4LqefFPvdhk1X-14" target="ymc9ERC4LqefFPvdhk1X-21">
          <mxGeometry relative="1" as="geometry">
            <mxPoint x="190" as="sourcePoint" />
            <mxPoint x="190" y="130" as="targetPoint" />
          </mxGeometry>
        </mxCell>
        <mxCell id="ymc9ERC4LqefFPvdhk1X-29" value="" style="endArrow=none;html=1;rounded=0;exitX=1;exitY=0.5;exitDx=0;exitDy=0;entryX=0;entryY=0.5;entryDx=0;entryDy=0;" edge="1" parent="1" source="ymc9ERC4LqefFPvdhk1X-14" target="ymc9ERC4LqefFPvdhk1X-30">
          <mxGeometry relative="1" as="geometry">
            <mxPoint x="260" y="180" as="sourcePoint" />
            <mxPoint x="280" y="180" as="targetPoint" />
          </mxGeometry>
        </mxCell>
        <mxCell id="ymc9ERC4LqefFPvdhk1X-30" value="Mendaftar" style="shape=rhombus;perimeter=rhombusPerimeter;whiteSpace=wrap;html=1;align=center;" vertex="1" parent="1">
          <mxGeometry x="385" y="150" width="75" height="60" as="geometry" />
        </mxCell>
        <mxCell id="ymc9ERC4LqefFPvdhk1X-32" value="jurusan" style="ellipse;whiteSpace=wrap;html=1;align=center;" vertex="1" parent="1">
          <mxGeometry x="335" y="60" width="65" height="40" as="geometry" />
        </mxCell>
        <mxCell id="ymc9ERC4LqefFPvdhk1X-33" value="nama&amp;nbsp;" style="ellipse;whiteSpace=wrap;html=1;align=center;" vertex="1" parent="1">
          <mxGeometry x="485" y="100" width="70" height="40" as="geometry" />
        </mxCell>
        <mxCell id="ymc9ERC4LqefFPvdhk1X-34" value="alamat" style="ellipse;whiteSpace=wrap;html=1;align=center;" vertex="1" parent="1">
          <mxGeometry x="295" y="100" width="60" height="40" as="geometry" />
        </mxCell>
        <mxCell id="ymc9ERC4LqefFPvdhk1X-35" value="" style="endArrow=none;html=1;rounded=0;exitX=0.5;exitY=1;exitDx=0;exitDy=0;entryX=0.5;entryY=0;entryDx=0;entryDy=0;" edge="1" parent="1" source="ymc9ERC4LqefFPvdhk1X-34" target="ymc9ERC4LqefFPvdhk1X-30">
          <mxGeometry relative="1" as="geometry">
            <mxPoint x="325" y="60" as="sourcePoint" />
            <mxPoint x="420" y="90" as="targetPoint" />
          </mxGeometry>
        </mxCell>
        <mxCell id="ymc9ERC4LqefFPvdhk1X-36" value="" style="endArrow=none;html=1;rounded=0;exitX=0.5;exitY=0;exitDx=0;exitDy=0;entryX=0.5;entryY=1;entryDx=0;entryDy=0;" edge="1" parent="1" source="ymc9ERC4LqefFPvdhk1X-30" target="ymc9ERC4LqefFPvdhk1X-32">
          <mxGeometry relative="1" as="geometry">
            <mxPoint x="420" y="90" as="sourcePoint" />
            <mxPoint x="565" y="80" as="targetPoint" />
          </mxGeometry>
        </mxCell>
        <mxCell id="ymc9ERC4LqefFPvdhk1X-37" value="" style="endArrow=none;html=1;rounded=0;exitX=0.5;exitY=0;exitDx=0;exitDy=0;entryX=0.5;entryY=1;entryDx=0;entryDy=0;" edge="1" parent="1" source="ymc9ERC4LqefFPvdhk1X-30" target="ymc9ERC4LqefFPvdhk1X-33">
          <mxGeometry relative="1" as="geometry">
            <mxPoint x="420" y="90" as="sourcePoint" />
            <mxPoint x="615" y="100" as="targetPoint" />
          </mxGeometry>
        </mxCell>
        <mxCell id="ymc9ERC4LqefFPvdhk1X-39" value="&lt;span style=&quot;border-bottom: 1px dotted&quot;&gt;nim&lt;/span&gt;" style="ellipse;whiteSpace=wrap;html=1;align=center;" vertex="1" parent="1">
          <mxGeometry x="415" y="60" width="70" height="40" as="geometry" />
        </mxCell>
        <mxCell id="ymc9ERC4LqefFPvdhk1X-40" value="" style="endArrow=none;html=1;rounded=0;exitX=0.5;exitY=0;exitDx=0;exitDy=0;entryX=0.5;entryY=1;entryDx=0;entryDy=0;" edge="1" parent="1" source="ymc9ERC4LqefFPvdhk1X-30" target="ymc9ERC4LqefFPvdhk1X-39">
          <mxGeometry relative="1" as="geometry">
            <mxPoint x="420" y="90" as="sourcePoint" />
            <mxPoint x="595" y="80" as="targetPoint" />
          </mxGeometry>
        </mxCell>
        <mxCell id="ymc9ERC4LqefFPvdhk1X-41" value="" style="endArrow=none;html=1;rounded=0;exitX=1;exitY=0.5;exitDx=0;exitDy=0;entryX=0;entryY=0.5;entryDx=0;entryDy=0;" edge="1" parent="1" source="ymc9ERC4LqefFPvdhk1X-30" target="ymc9ERC4LqefFPvdhk1X-42">
          <mxGeometry relative="1" as="geometry">
            <mxPoint x="510" y="180" as="sourcePoint" />
            <mxPoint x="540" y="180" as="targetPoint" />
          </mxGeometry>
        </mxCell>
        <mxCell id="ymc9ERC4LqefFPvdhk1X-42" value="Anggota perpustakaan" style="whiteSpace=wrap;html=1;align=center;" vertex="1" parent="1">
          <mxGeometry x="650" y="160" width="100" height="40" as="geometry" />
        </mxCell>
        <mxCell id="ymc9ERC4LqefFPvdhk1X-43" value="jurusan" style="ellipse;whiteSpace=wrap;html=1;align=center;" vertex="1" parent="1">
          <mxGeometry x="695" y="60" width="65" height="40" as="geometry" />
        </mxCell>
        <mxCell id="ymc9ERC4LqefFPvdhk1X-44" value="nama&amp;nbsp;" style="ellipse;whiteSpace=wrap;html=1;align=center;" vertex="1" parent="1">
          <mxGeometry x="610" y="60" width="70" height="40" as="geometry" />
        </mxCell>
        <mxCell id="ymc9ERC4LqefFPvdhk1X-45" value="masa berlaku" style="ellipse;whiteSpace=wrap;html=1;align=center;" vertex="1" parent="1">
          <mxGeometry x="770" y="110" width="70" height="40" as="geometry" />
        </mxCell>
        <mxCell id="ymc9ERC4LqefFPvdhk1X-46" value="" style="endArrow=none;html=1;rounded=0;exitX=0.5;exitY=1;exitDx=0;exitDy=0;entryX=0.5;entryY=0;entryDx=0;entryDy=0;" edge="1" parent="1" source="ymc9ERC4LqefFPvdhk1X-45">
          <mxGeometry relative="1" as="geometry">
            <mxPoint x="600" y="70" as="sourcePoint" />
            <mxPoint x="695" y="160" as="targetPoint" />
          </mxGeometry>
        </mxCell>
        <mxCell id="ymc9ERC4LqefFPvdhk1X-47" value="" style="endArrow=none;html=1;rounded=0;exitX=0.5;exitY=0;exitDx=0;exitDy=0;entryX=0.5;entryY=1;entryDx=0;entryDy=0;" edge="1" parent="1" target="ymc9ERC4LqefFPvdhk1X-43">
          <mxGeometry relative="1" as="geometry">
            <mxPoint x="695" y="160" as="sourcePoint" />
            <mxPoint x="840" y="90" as="targetPoint" />
          </mxGeometry>
        </mxCell>
        <mxCell id="ymc9ERC4LqefFPvdhk1X-48" value="" style="endArrow=none;html=1;rounded=0;exitX=0.5;exitY=0;exitDx=0;exitDy=0;entryX=0.5;entryY=1;entryDx=0;entryDy=0;" edge="1" parent="1" target="ymc9ERC4LqefFPvdhk1X-44">
          <mxGeometry relative="1" as="geometry">
            <mxPoint x="695" y="160" as="sourcePoint" />
            <mxPoint x="890" y="110" as="targetPoint" />
          </mxGeometry>
        </mxCell>
        <mxCell id="ymc9ERC4LqefFPvdhk1X-49" value="&lt;span style=&quot;border-bottom: 1px dotted&quot;&gt;nomor anggota&lt;/span&gt;" style="ellipse;whiteSpace=wrap;html=1;align=center;" vertex="1" parent="1">
          <mxGeometry x="570" y="110" width="70" height="40" as="geometry" />
        </mxCell>
        <mxCell id="ymc9ERC4LqefFPvdhk1X-50" value="" style="endArrow=none;html=1;rounded=0;exitX=0.5;exitY=0;exitDx=0;exitDy=0;entryX=0.5;entryY=1;entryDx=0;entryDy=0;" edge="1" parent="1" target="ymc9ERC4LqefFPvdhk1X-49">
          <mxGeometry relative="1" as="geometry">
            <mxPoint x="695" y="160" as="sourcePoint" />
            <mxPoint x="870" y="90" as="targetPoint" />
          </mxGeometry>
        </mxCell>
        <mxCell id="ymc9ERC4LqefFPvdhk1X-51" value="" style="endArrow=none;html=1;rounded=0;exitX=0.5;exitY=1;exitDx=0;exitDy=0;entryX=0.5;entryY=0;entryDx=0;entryDy=0;" edge="1" parent="1" source="ymc9ERC4LqefFPvdhk1X-42" target="ymc9ERC4LqefFPvdhk1X-52">
          <mxGeometry relative="1" as="geometry">
            <mxPoint x="760" y="250" as="sourcePoint" />
            <mxPoint x="700" y="230" as="targetPoint" />
          </mxGeometry>
        </mxCell>
        <mxCell id="ymc9ERC4LqefFPvdhk1X-53" value="1" style="edgeLabel;html=1;align=center;verticalAlign=middle;resizable=0;points=[];" vertex="1" connectable="0" parent="ymc9ERC4LqefFPvdhk1X-51">
          <mxGeometry x="-0.2854" y="1" relative="1" as="geometry">
            <mxPoint x="-1" y="-4" as="offset" />
          </mxGeometry>
        </mxCell>
        <mxCell id="ymc9ERC4LqefFPvdhk1X-52" value="Meminjam" style="shape=rhombus;perimeter=rhombusPerimeter;whiteSpace=wrap;html=1;align=center;" vertex="1" parent="1">
          <mxGeometry x="662.5" y="350" width="75" height="60" as="geometry" />
        </mxCell>
        <mxCell id="ymc9ERC4LqefFPvdhk1X-55" value="tanggal pinjam" style="ellipse;whiteSpace=wrap;html=1;align=center;" vertex="1" parent="1">
          <mxGeometry x="572.5" y="420" width="65" height="40" as="geometry" />
        </mxCell>
        <mxCell id="ymc9ERC4LqefFPvdhk1X-56" value="tanggal kembali" style="ellipse;whiteSpace=wrap;html=1;align=center;" vertex="1" parent="1">
          <mxGeometry x="502.5" y="360" width="70" height="40" as="geometry" />
        </mxCell>
        <mxCell id="ymc9ERC4LqefFPvdhk1X-57" value="kode peminjaman" style="ellipse;whiteSpace=wrap;html=1;align=center;" vertex="1" parent="1">
          <mxGeometry x="570" y="300" width="80" height="40" as="geometry" />
        </mxCell>
        <mxCell id="ymc9ERC4LqefFPvdhk1X-58" value="" style="endArrow=none;html=1;rounded=0;exitX=1;exitY=1;exitDx=0;exitDy=0;entryX=0;entryY=0.5;entryDx=0;entryDy=0;" edge="1" parent="1" source="ymc9ERC4LqefFPvdhk1X-57" target="ymc9ERC4LqefFPvdhk1X-52">
          <mxGeometry relative="1" as="geometry">
            <mxPoint x="455" y="260" as="sourcePoint" />
            <mxPoint x="550" y="350" as="targetPoint" />
          </mxGeometry>
        </mxCell>
        <mxCell id="ymc9ERC4LqefFPvdhk1X-59" value="" style="endArrow=none;html=1;rounded=0;exitX=0;exitY=0.5;exitDx=0;exitDy=0;entryX=1;entryY=0;entryDx=0;entryDy=0;" edge="1" parent="1" target="ymc9ERC4LqefFPvdhk1X-55" source="ymc9ERC4LqefFPvdhk1X-52">
          <mxGeometry relative="1" as="geometry">
            <mxPoint x="550" y="350" as="sourcePoint" />
            <mxPoint x="695" y="280" as="targetPoint" />
          </mxGeometry>
        </mxCell>
        <mxCell id="ymc9ERC4LqefFPvdhk1X-60" value="" style="endArrow=none;html=1;rounded=0;exitX=0;exitY=0.5;exitDx=0;exitDy=0;entryX=1;entryY=0.5;entryDx=0;entryDy=0;" edge="1" parent="1" target="ymc9ERC4LqefFPvdhk1X-56" source="ymc9ERC4LqefFPvdhk1X-52">
          <mxGeometry relative="1" as="geometry">
            <mxPoint x="550" y="350" as="sourcePoint" />
            <mxPoint x="745" y="300" as="targetPoint" />
          </mxGeometry>
        </mxCell>
        <mxCell id="ymc9ERC4LqefFPvdhk1X-61" value="&lt;span style=&quot;border-bottom: 1px dotted&quot;&gt;nomor anggota&lt;/span&gt;" style="ellipse;whiteSpace=wrap;html=1;align=center;" vertex="1" parent="1">
          <mxGeometry x="770" y="290" width="70" height="40" as="geometry" />
        </mxCell>
        <mxCell id="ymc9ERC4LqefFPvdhk1X-62" value="" style="endArrow=none;html=1;rounded=0;exitX=1;exitY=0.5;exitDx=0;exitDy=0;entryX=0;entryY=1;entryDx=0;entryDy=0;" edge="1" parent="1" target="ymc9ERC4LqefFPvdhk1X-61" source="ymc9ERC4LqefFPvdhk1X-52">
          <mxGeometry relative="1" as="geometry">
            <mxPoint x="550" y="350" as="sourcePoint" />
            <mxPoint x="725" y="280" as="targetPoint" />
          </mxGeometry>
        </mxCell>
        <mxCell id="ymc9ERC4LqefFPvdhk1X-63" value="&lt;span style=&quot;border-bottom: 1px dotted&quot;&gt;nomor buku&lt;/span&gt;" style="ellipse;whiteSpace=wrap;html=1;align=center;" vertex="1" parent="1">
          <mxGeometry x="770" y="340" width="70" height="40" as="geometry" />
        </mxCell>
        <mxCell id="ymc9ERC4LqefFPvdhk1X-64" value="" style="endArrow=none;html=1;rounded=0;exitX=1;exitY=0.5;exitDx=0;exitDy=0;entryX=0;entryY=0.5;entryDx=0;entryDy=0;" edge="1" parent="1" target="ymc9ERC4LqefFPvdhk1X-63" source="ymc9ERC4LqefFPvdhk1X-52">
          <mxGeometry relative="1" as="geometry">
            <mxPoint x="768" y="440" as="sourcePoint" />
            <mxPoint x="755" y="340" as="targetPoint" />
          </mxGeometry>
        </mxCell>
        <mxCell id="ymc9ERC4LqefFPvdhk1X-66" value="1" style="edgeLabel;html=1;align=center;verticalAlign=middle;resizable=0;points=[];" vertex="1" connectable="0" parent="1">
          <mxGeometry x="920" y="389.99636363636375" as="geometry" />
        </mxCell>
        <mxCell id="ymc9ERC4LqefFPvdhk1X-67" value="judul buku" style="ellipse;whiteSpace=wrap;html=1;align=center;" vertex="1" parent="1">
          <mxGeometry x="772.5" y="390" width="65" height="40" as="geometry" />
        </mxCell>
        <mxCell id="ymc9ERC4LqefFPvdhk1X-68" value="denda" style="ellipse;whiteSpace=wrap;html=1;align=center;" vertex="1" parent="1">
          <mxGeometry x="770" y="450" width="70" height="40" as="geometry" />
        </mxCell>
        <mxCell id="ymc9ERC4LqefFPvdhk1X-69" value="" style="endArrow=none;html=1;rounded=0;exitX=0;exitY=0;exitDx=0;exitDy=0;entryX=1;entryY=0.5;entryDx=0;entryDy=0;" edge="1" parent="1" source="ymc9ERC4LqefFPvdhk1X-68" target="ymc9ERC4LqefFPvdhk1X-52">
          <mxGeometry relative="1" as="geometry">
            <mxPoint x="675" y="400.36" as="sourcePoint" />
            <mxPoint x="770" y="490.36" as="targetPoint" />
          </mxGeometry>
        </mxCell>
        <mxCell id="ymc9ERC4LqefFPvdhk1X-70" value="" style="endArrow=none;html=1;rounded=0;entryX=0;entryY=0.5;entryDx=0;entryDy=0;exitX=1;exitY=0.5;exitDx=0;exitDy=0;" edge="1" parent="1" target="ymc9ERC4LqefFPvdhk1X-67" source="ymc9ERC4LqefFPvdhk1X-52">
          <mxGeometry relative="1" as="geometry">
            <mxPoint x="770" y="490.36" as="sourcePoint" />
            <mxPoint x="915" y="420.36" as="targetPoint" />
          </mxGeometry>
        </mxCell>
        <mxCell id="ymc9ERC4LqefFPvdhk1X-73" value="tahun terbit" style="ellipse;whiteSpace=wrap;html=1;align=center;" vertex="1" parent="1">
          <mxGeometry x="555" y="750" width="70" height="40" as="geometry" />
        </mxCell>
        <mxCell id="ymc9ERC4LqefFPvdhk1X-74" value="judul buku" style="ellipse;whiteSpace=wrap;html=1;align=center;" vertex="1" parent="1">
          <mxGeometry x="450" y="640" width="80" height="40" as="geometry" />
        </mxCell>
        <mxCell id="ymc9ERC4LqefFPvdhk1X-75" value="" style="endArrow=none;html=1;rounded=0;exitX=1;exitY=0.5;exitDx=0;exitDy=0;entryX=0.5;entryY=1;entryDx=0;entryDy=0;" edge="1" parent="1" source="ymc9ERC4LqefFPvdhk1X-74" target="ymc9ERC4LqefFPvdhk1X-86">
          <mxGeometry relative="1" as="geometry">
            <mxPoint x="452.5" y="510" as="sourcePoint" />
            <mxPoint x="660" y="630" as="targetPoint" />
          </mxGeometry>
        </mxCell>
        <mxCell id="ymc9ERC4LqefFPvdhk1X-77" value="" style="endArrow=none;html=1;rounded=0;exitX=0.5;exitY=1;exitDx=0;exitDy=0;entryX=1;entryY=0.5;entryDx=0;entryDy=0;" edge="1" parent="1" source="ymc9ERC4LqefFPvdhk1X-86" target="ymc9ERC4LqefFPvdhk1X-73">
          <mxGeometry relative="1" as="geometry">
            <mxPoint x="660" y="630" as="sourcePoint" />
            <mxPoint x="742.5" y="550" as="targetPoint" />
          </mxGeometry>
        </mxCell>
        <mxCell id="ymc9ERC4LqefFPvdhk1X-79" value="" style="endArrow=none;html=1;rounded=0;exitX=0.5;exitY=1;exitDx=0;exitDy=0;entryX=0;entryY=0.5;entryDx=0;entryDy=0;" edge="1" parent="1" source="ymc9ERC4LqefFPvdhk1X-86" target="ymc9ERC4LqefFPvdhk1X-89">
          <mxGeometry relative="1" as="geometry">
            <mxPoint x="800" y="630" as="sourcePoint" />
            <mxPoint x="850.4135442557199" y="674.2342638519517" as="targetPoint" />
          </mxGeometry>
        </mxCell>
        <mxCell id="ymc9ERC4LqefFPvdhk1X-80" value="&lt;span style=&quot;border-bottom: 1px dotted&quot;&gt;nomor buku&lt;/span&gt;" style="ellipse;whiteSpace=wrap;html=1;align=center;" vertex="1" parent="1">
          <mxGeometry x="480" y="700" width="70" height="40" as="geometry" />
        </mxCell>
        <mxCell id="ymc9ERC4LqefFPvdhk1X-81" value="" style="endArrow=none;html=1;rounded=0;exitX=0.5;exitY=1;exitDx=0;exitDy=0;entryX=1;entryY=0.5;entryDx=0;entryDy=0;" edge="1" parent="1" source="ymc9ERC4LqefFPvdhk1X-86" target="ymc9ERC4LqefFPvdhk1X-80">
          <mxGeometry relative="1" as="geometry">
            <mxPoint x="800" y="630" as="sourcePoint" />
            <mxPoint x="817.5" y="590" as="targetPoint" />
          </mxGeometry>
        </mxCell>
        <mxCell id="ymc9ERC4LqefFPvdhk1X-82" value="jenis buku" style="ellipse;whiteSpace=wrap;html=1;align=center;" vertex="1" parent="1">
          <mxGeometry x="775" y="750" width="65" height="40" as="geometry" />
        </mxCell>
        <mxCell id="ymc9ERC4LqefFPvdhk1X-83" value="penerbit" style="ellipse;whiteSpace=wrap;html=1;align=center;" vertex="1" parent="1">
          <mxGeometry x="665" y="750" width="70" height="40" as="geometry" />
        </mxCell>
        <mxCell id="ymc9ERC4LqefFPvdhk1X-84" value="" style="endArrow=none;html=1;rounded=0;exitX=0.5;exitY=0;exitDx=0;exitDy=0;entryX=0.5;entryY=1;entryDx=0;entryDy=0;" edge="1" parent="1" source="ymc9ERC4LqefFPvdhk1X-83" target="ymc9ERC4LqefFPvdhk1X-86">
          <mxGeometry relative="1" as="geometry">
            <mxPoint x="737.5" y="650.36" as="sourcePoint" />
            <mxPoint x="800" y="630" as="targetPoint" />
          </mxGeometry>
        </mxCell>
        <mxCell id="ymc9ERC4LqefFPvdhk1X-85" value="" style="endArrow=none;html=1;rounded=0;entryX=0;entryY=0.5;entryDx=0;entryDy=0;exitX=0.5;exitY=1;exitDx=0;exitDy=0;" edge="1" parent="1" source="ymc9ERC4LqefFPvdhk1X-86" target="ymc9ERC4LqefFPvdhk1X-82">
          <mxGeometry relative="1" as="geometry">
            <mxPoint x="800" y="630" as="sourcePoint" />
            <mxPoint x="977.5" y="670.36" as="targetPoint" />
          </mxGeometry>
        </mxCell>
        <mxCell id="ymc9ERC4LqefFPvdhk1X-86" value="Buku" style="whiteSpace=wrap;html=1;align=center;" vertex="1" parent="1">
          <mxGeometry x="620" y="600" width="100" height="40" as="geometry" />
        </mxCell>
        <mxCell id="ymc9ERC4LqefFPvdhk1X-88" value="" style="endArrow=none;html=1;rounded=0;exitX=0.5;exitY=1;exitDx=0;exitDy=0;entryX=0.5;entryY=0;entryDx=0;entryDy=0;" edge="1" parent="1" source="ymc9ERC4LqefFPvdhk1X-52" target="ymc9ERC4LqefFPvdhk1X-86">
          <mxGeometry relative="1" as="geometry">
            <mxPoint x="620" y="530" as="sourcePoint" />
            <mxPoint x="780" y="530" as="targetPoint" />
          </mxGeometry>
        </mxCell>
        <mxCell id="ymc9ERC4LqefFPvdhk1X-90" value="many" style="edgeLabel;html=1;align=center;verticalAlign=middle;resizable=0;points=[];" vertex="1" connectable="0" parent="ymc9ERC4LqefFPvdhk1X-88">
          <mxGeometry x="-0.0868" relative="1" as="geometry">
            <mxPoint as="offset" />
          </mxGeometry>
        </mxCell>
        <mxCell id="ymc9ERC4LqefFPvdhk1X-89" value="pengarang" style="ellipse;whiteSpace=wrap;html=1;align=center;" vertex="1" parent="1">
          <mxGeometry x="740" y="650" width="100" height="40" as="geometry" />
        </mxCell>
        <mxCell id="ymc9ERC4LqefFPvdhk1X-91" value="many" style="text;html=1;align=center;verticalAlign=middle;resizable=0;points=[];autosize=1;strokeColor=none;fillColor=none;" vertex="1" parent="1">
          <mxGeometry x="505" y="180" width="50" height="30" as="geometry" />
        </mxCell>
        <mxCell id="ymc9ERC4LqefFPvdhk1X-92" value="many" style="text;html=1;align=center;verticalAlign=middle;resizable=0;points=[];autosize=1;strokeColor=none;fillColor=none;" vertex="1" parent="1">
          <mxGeometry x="285" y="180" width="50" height="30" as="geometry" />
        </mxCell>
      </root>
    </mxGraphModel>
  </diagram>
</mxfile>
